<svg xmlns="http://www.w3.org/2000/svg" viewBox="0 0 3110 1500" preserveAspectRatio="xMidYMid slice"><rect x="-2000" y="-2000" width="7110" height="5500" fill="#d81e05"/><g transform="translate(1555 750) scale(3.4 -3.4) translate(-1555 -750)" fill="#d81e05"><path d="M0 0L0 500Q0 604 39.5 695Q79 786 146.5 854Q214 922 305.5 961Q397 1000 500 1000L0 1000Q0 1104 39.5 1195Q79 1286 146.5 1354Q214 1422 305.5 1461Q397 1500 500 1500L1000 1500Q1104 1500 1195 1460.5Q1286 1421 1354 1353.5Q1422 1286 1461 1195Q1500 1104 1500 1000Q1500 931 1482 867Q1464 803 1431.5 747.5Q1399 692 1353.5 646.5Q1308 601 1252.5 568.5Q1197 536 1133 518Q1069 500 1000 500L1500 500L1500 0Z" transform="translate(0 0)"/><path d="M500 0Q397 0 305.5 39.5Q214 79 146.5 146.5Q79 214 39.5 305.5Q0 397 0 500L0 1000Q0 1104 39.5 1195Q79 1286 146.5 1354Q214 1422 305.5 1461Q397 1500 500 1500L1000 1500Q1104 1500 1195 1460.5Q1286 1421 1354 1353.5Q1422 1286 1461 1195Q1500 1104 1500 1000L1000 1000Q1104 1000 1195 960.5Q1286 921 1354 853.5Q1422 786 1461 695Q1500 604 1500 500Q1500 431 1482 367Q1464 303 1431.5 247.5Q1399 192 1353.5 146.5Q1308 101 1252.5 68.5Q1197 36 1133 18Q1069 0 1000 0Z" transform="translate(1610 0)"/></g><g transform="translate(1555 750) scale(2.75 -2.75) translate(-1555 -750)" fill="#a4d904"><path d="M0 0L0 500Q0 604 39.5 695Q79 786 146.5 854Q214 922 305.5 961Q397 1000 500 1000L0 1000Q0 1104 39.5 1195Q79 1286 146.5 1354Q214 1422 305.5 1461Q397 1500 500 1500L1000 1500Q1104 1500 1195 1460.5Q1286 1421 1354 1353.5Q1422 1286 1461 1195Q1500 1104 1500 1000Q1500 931 1482 867Q1464 803 1431.5 747.5Q1399 692 1353.5 646.5Q1308 601 1252.5 568.5Q1197 536 1133 518Q1069 500 1000 500L1500 500L1500 0Z" transform="translate(0 0)"/><path d="M500 0Q397 0 305.5 39.5Q214 79 146.5 146.5Q79 214 39.5 305.5Q0 397 0 500L0 1000Q0 1104 39.5 1195Q79 1286 146.5 1354Q214 1422 305.5 1461Q397 1500 500 1500L1000 1500Q1104 1500 1195 1460.5Q1286 1421 1354 1353.5Q1422 1286 1461 1195Q1500 1104 1500 1000L1000 1000Q1104 1000 1195 960.5Q1286 921 1354 853.5Q1422 786 1461 695Q1500 604 1500 500Q1500 431 1482 367Q1464 303 1431.5 247.5Q1399 192 1353.5 146.5Q1308 101 1252.5 68.5Q1197 36 1133 18Q1069 0 1000 0Z" transform="translate(1610 0)"/></g><g transform="translate(1555 750) scale(2.2 -2.2) translate(-1555 -750)" fill="#0a5f4f"><path d="M0 0L0 500Q0 604 39.5 695Q79 786 146.5 854Q214 922 305.5 961Q397 1000 500 1000L0 1000Q0 1104 39.5 1195Q79 1286 146.5 1354Q214 1422 305.5 1461Q397 1500 500 1500L1000 1500Q1104 1500 1195 1460.5Q1286 1421 1354 1353.5Q1422 1286 1461 1195Q1500 1104 1500 1000Q1500 931 1482 867Q1464 803 1431.5 747.5Q1399 692 1353.5 646.5Q1308 601 1252.5 568.5Q1197 536 1133 518Q1069 500 1000 500L1500 500L1500 0Z" transform="translate(0 0)"/><path d="M500 0Q397 0 305.5 39.5Q214 79 146.5 146.5Q79 214 39.5 305.5Q0 397 0 500L0 1000Q0 1104 39.5 1195Q79 1286 146.5 1354Q214 1422 305.5 1461Q397 1500 500 1500L1000 1500Q1104 1500 1195 1460.5Q1286 1421 1354 1353.5Q1422 1286 1461 1195Q1500 1104 1500 1000L1000 1000Q1104 1000 1195 960.5Q1286 921 1354 853.5Q1422 786 1461 695Q1500 604 1500 500Q1500 431 1482 367Q1464 303 1431.5 247.5Q1399 192 1353.5 146.5Q1308 101 1252.5 68.5Q1197 36 1133 18Q1069 0 1000 0Z" transform="translate(1610 0)"/></g><g transform="translate(1555 750) scale(1.75 -1.75) translate(-1555 -750)" fill="#2b4bd4"><path d="M0 0L0 500Q0 604 39.5 695Q79 786 146.5 854Q214 922 305.5 961Q397 1000 500 1000L0 1000Q0 1104 39.5 1195Q79 1286 146.5 1354Q214 1422 305.5 1461Q397 1500 500 1500L1000 1500Q1104 1500 1195 1460.5Q1286 1421 1354 1353.5Q1422 1286 1461 1195Q1500 1104 1500 1000Q1500 931 1482 867Q1464 803 1431.5 747.5Q1399 692 1353.5 646.5Q1308 601 1252.5 568.5Q1197 536 1133 518Q1069 500 1000 500L1500 500L1500 0Z" transform="translate(0 0)"/><path d="M500 0Q397 0 305.5 39.5Q214 79 146.5 146.5Q79 214 39.5 305.5Q0 397 0 500L0 1000Q0 1104 39.5 1195Q79 1286 146.5 1354Q214 1422 305.5 1461Q397 1500 500 1500L1000 1500Q1104 1500 1195 1460.5Q1286 1421 1354 1353.5Q1422 1286 1461 1195Q1500 1104 1500 1000L1000 1000Q1104 1000 1195 960.5Q1286 921 1354 853.5Q1422 786 1461 695Q1500 604 1500 500Q1500 431 1482 367Q1464 303 1431.5 247.5Q1399 192 1353.5 146.5Q1308 101 1252.5 68.5Q1197 36 1133 18Q1069 0 1000 0Z" transform="translate(1610 0)"/></g><g transform="translate(1555 750) scale(1.4 -1.4) translate(-1555 -750)" fill="#4a2a86"><path d="M0 0L0 500Q0 604 39.5 695Q79 786 146.5 854Q214 922 305.5 961Q397 1000 500 1000L0 1000Q0 1104 39.5 1195Q79 1286 146.5 1354Q214 1422 305.5 1461Q397 1500 500 1500L1000 1500Q1104 1500 1195 1460.5Q1286 1421 1354 1353.5Q1422 1286 1461 1195Q1500 1104 1500 1000Q1500 931 1482 867Q1464 803 1431.5 747.5Q1399 692 1353.5 646.5Q1308 601 1252.5 568.5Q1197 536 1133 518Q1069 500 1000 500L1500 500L1500 0Z" transform="translate(0 0)"/><path d="M500 0Q397 0 305.5 39.5Q214 79 146.5 146.5Q79 214 39.5 305.5Q0 397 0 500L0 1000Q0 1104 39.5 1195Q79 1286 146.5 1354Q214 1422 305.5 1461Q397 1500 500 1500L1000 1500Q1104 1500 1195 1460.5Q1286 1421 1354 1353.5Q1422 1286 1461 1195Q1500 1104 1500 1000L1000 1000Q1104 1000 1195 960.5Q1286 921 1354 853.5Q1422 786 1461 695Q1500 604 1500 500Q1500 431 1482 367Q1464 303 1431.5 247.5Q1399 192 1353.5 146.5Q1308 101 1252.5 68.5Q1197 36 1133 18Q1069 0 1000 0Z" transform="translate(1610 0)"/></g><g transform="translate(1555 750) scale(1.12 -1.12) translate(-1555 -750)" fill="#e5185f"><path d="M0 0L0 500Q0 604 39.5 695Q79 786 146.5 854Q214 922 305.5 961Q397 1000 500 1000L0 1000Q0 1104 39.5 1195Q79 1286 146.5 1354Q214 1422 305.5 1461Q397 1500 500 1500L1000 1500Q1104 1500 1195 1460.5Q1286 1421 1354 1353.5Q1422 1286 1461 1195Q1500 1104 1500 1000Q1500 931 1482 867Q1464 803 1431.5 747.5Q1399 692 1353.5 646.5Q1308 601 1252.5 568.5Q1197 536 1133 518Q1069 500 1000 500L1500 500L1500 0Z" transform="translate(0 0)"/><path d="M500 0Q397 0 305.5 39.5Q214 79 146.5 146.5Q79 214 39.5 305.5Q0 397 0 500L0 1000Q0 1104 39.5 1195Q79 1286 146.5 1354Q214 1422 305.5 1461Q397 1500 500 1500L1000 1500Q1104 1500 1195 1460.5Q1286 1421 1354 1353.5Q1422 1286 1461 1195Q1500 1104 1500 1000L1000 1000Q1104 1000 1195 960.5Q1286 921 1354 853.5Q1422 786 1461 695Q1500 604 1500 500Q1500 431 1482 367Q1464 303 1431.5 247.5Q1399 192 1353.5 146.5Q1308 101 1252.5 68.5Q1197 36 1133 18Q1069 0 1000 0Z" transform="translate(1610 0)"/></g><g transform="translate(1555 750) scale(0.9 -0.9) translate(-1555 -750)" fill="#ff3d00"><path d="M0 0L0 500Q0 604 39.5 695Q79 786 146.5 854Q214 922 305.5 961Q397 1000 500 1000L0 1000Q0 1104 39.5 1195Q79 1286 146.5 1354Q214 1422 305.5 1461Q397 1500 500 1500L1000 1500Q1104 1500 1195 1460.5Q1286 1421 1354 1353.5Q1422 1286 1461 1195Q1500 1104 1500 1000Q1500 931 1482 867Q1464 803 1431.5 747.5Q1399 692 1353.5 646.5Q1308 601 1252.5 568.5Q1197 536 1133 518Q1069 500 1000 500L1500 500L1500 0Z" transform="translate(0 0)"/><path d="M500 0Q397 0 305.5 39.5Q214 79 146.5 146.5Q79 214 39.5 305.5Q0 397 0 500L0 1000Q0 1104 39.5 1195Q79 1286 146.5 1354Q214 1422 305.5 1461Q397 1500 500 1500L1000 1500Q1104 1500 1195 1460.5Q1286 1421 1354 1353.5Q1422 1286 1461 1195Q1500 1104 1500 1000L1000 1000Q1104 1000 1195 960.5Q1286 921 1354 853.5Q1422 786 1461 695Q1500 604 1500 500Q1500 431 1482 367Q1464 303 1431.5 247.5Q1399 192 1353.5 146.5Q1308 101 1252.5 68.5Q1197 36 1133 18Q1069 0 1000 0Z" transform="translate(1610 0)"/></g><g transform="translate(1555 750) scale(0.72 -0.72) translate(-1555 -750)" fill="#00a651"><path d="M0 0L0 500Q0 604 39.5 695Q79 786 146.5 854Q214 922 305.5 961Q397 1000 500 1000L0 1000Q0 1104 39.5 1195Q79 1286 146.5 1354Q214 1422 305.5 1461Q397 1500 500 1500L1000 1500Q1104 1500 1195 1460.5Q1286 1421 1354 1353.5Q1422 1286 1461 1195Q1500 1104 1500 1000Q1500 931 1482 867Q1464 803 1431.5 747.5Q1399 692 1353.5 646.5Q1308 601 1252.5 568.5Q1197 536 1133 518Q1069 500 1000 500L1500 500L1500 0Z" transform="translate(0 0)"/><path d="M500 0Q397 0 305.5 39.5Q214 79 146.5 146.5Q79 214 39.5 305.5Q0 397 0 500L0 1000Q0 1104 39.5 1195Q79 1286 146.5 1354Q214 1422 305.5 1461Q397 1500 500 1500L1000 1500Q1104 1500 1195 1460.5Q1286 1421 1354 1353.5Q1422 1286 1461 1195Q1500 1104 1500 1000L1000 1000Q1104 1000 1195 960.5Q1286 921 1354 853.5Q1422 786 1461 695Q1500 604 1500 500Q1500 431 1482 367Q1464 303 1431.5 247.5Q1399 192 1353.5 146.5Q1308 101 1252.5 68.5Q1197 36 1133 18Q1069 0 1000 0Z" transform="translate(1610 0)"/></g><g transform="translate(1555 750) scale(0.57 -0.57) translate(-1555 -750)" fill="#17a3e0"><path d="M0 0L0 500Q0 604 39.5 695Q79 786 146.5 854Q214 922 305.5 961Q397 1000 500 1000L0 1000Q0 1104 39.5 1195Q79 1286 146.5 1354Q214 1422 305.5 1461Q397 1500 500 1500L1000 1500Q1104 1500 1195 1460.5Q1286 1421 1354 1353.5Q1422 1286 1461 1195Q1500 1104 1500 1000Q1500 931 1482 867Q1464 803 1431.5 747.5Q1399 692 1353.5 646.5Q1308 601 1252.5 568.5Q1197 536 1133 518Q1069 500 1000 500L1500 500L1500 0Z" transform="translate(0 0)"/><path d="M500 0Q397 0 305.5 39.5Q214 79 146.5 146.5Q79 214 39.5 305.5Q0 397 0 500L0 1000Q0 1104 39.5 1195Q79 1286 146.5 1354Q214 1422 305.5 1461Q397 1500 500 1500L1000 1500Q1104 1500 1195 1460.5Q1286 1421 1354 1353.5Q1422 1286 1461 1195Q1500 1104 1500 1000L1000 1000Q1104 1000 1195 960.5Q1286 921 1354 853.5Q1422 786 1461 695Q1500 604 1500 500Q1500 431 1482 367Q1464 303 1431.5 247.5Q1399 192 1353.5 146.5Q1308 101 1252.5 68.5Q1197 36 1133 18Q1069 0 1000 0Z" transform="translate(1610 0)"/></g><g transform="translate(1555 750) scale(0.44 -0.44) translate(-1555 -750)" fill="#a78bec"><path d="M0 0L0 500Q0 604 39.5 695Q79 786 146.5 854Q214 922 305.5 961Q397 1000 500 1000L0 1000Q0 1104 39.5 1195Q79 1286 146.5 1354Q214 1422 305.5 1461Q397 1500 500 1500L1000 1500Q1104 1500 1195 1460.5Q1286 1421 1354 1353.5Q1422 1286 1461 1195Q1500 1104 1500 1000Q1500 931 1482 867Q1464 803 1431.5 747.5Q1399 692 1353.5 646.5Q1308 601 1252.5 568.5Q1197 536 1133 518Q1069 500 1000 500L1500 500L1500 0Z" transform="translate(0 0)"/><path d="M500 0Q397 0 305.5 39.5Q214 79 146.5 146.5Q79 214 39.5 305.5Q0 397 0 500L0 1000Q0 1104 39.5 1195Q79 1286 146.5 1354Q214 1422 305.5 1461Q397 1500 500 1500L1000 1500Q1104 1500 1195 1460.5Q1286 1421 1354 1353.5Q1422 1286 1461 1195Q1500 1104 1500 1000L1000 1000Q1104 1000 1195 960.5Q1286 921 1354 853.5Q1422 786 1461 695Q1500 604 1500 500Q1500 431 1482 367Q1464 303 1431.5 247.5Q1399 192 1353.5 146.5Q1308 101 1252.5 68.5Q1197 36 1133 18Q1069 0 1000 0Z" transform="translate(1610 0)"/></g><g transform="translate(1555 750) scale(0.33 -0.33) translate(-1555 -750)" fill="#6a1029"><path d="M0 0L0 500Q0 604 39.5 695Q79 786 146.5 854Q214 922 305.5 961Q397 1000 500 1000L0 1000Q0 1104 39.5 1195Q79 1286 146.5 1354Q214 1422 305.5 1461Q397 1500 500 1500L1000 1500Q1104 1500 1195 1460.5Q1286 1421 1354 1353.5Q1422 1286 1461 1195Q1500 1104 1500 1000Q1500 931 1482 867Q1464 803 1431.5 747.5Q1399 692 1353.5 646.5Q1308 601 1252.5 568.5Q1197 536 1133 518Q1069 500 1000 500L1500 500L1500 0Z" transform="translate(0 0)"/><path d="M500 0Q397 0 305.5 39.5Q214 79 146.5 146.5Q79 214 39.5 305.5Q0 397 0 500L0 1000Q0 1104 39.5 1195Q79 1286 146.5 1354Q214 1422 305.5 1461Q397 1500 500 1500L1000 1500Q1104 1500 1195 1460.5Q1286 1421 1354 1353.5Q1422 1286 1461 1195Q1500 1104 1500 1000L1000 1000Q1104 1000 1195 960.5Q1286 921 1354 853.5Q1422 786 1461 695Q1500 604 1500 500Q1500 431 1482 367Q1464 303 1431.5 247.5Q1399 192 1353.5 146.5Q1308 101 1252.5 68.5Q1197 36 1133 18Q1069 0 1000 0Z" transform="translate(1610 0)"/></g><g transform="translate(1555 750) scale(0.22 -0.22) translate(-1555 -750)" fill="#57f5c8"><path d="M0 0L0 500Q0 604 39.5 695Q79 786 146.5 854Q214 922 305.5 961Q397 1000 500 1000L0 1000Q0 1104 39.5 1195Q79 1286 146.5 1354Q214 1422 305.5 1461Q397 1500 500 1500L1000 1500Q1104 1500 1195 1460.5Q1286 1421 1354 1353.5Q1422 1286 1461 1195Q1500 1104 1500 1000Q1500 931 1482 867Q1464 803 1431.5 747.5Q1399 692 1353.5 646.5Q1308 601 1252.5 568.5Q1197 536 1133 518Q1069 500 1000 500L1500 500L1500 0Z" transform="translate(0 0)"/><path d="M500 0Q397 0 305.5 39.5Q214 79 146.5 146.5Q79 214 39.5 305.5Q0 397 0 500L0 1000Q0 1104 39.5 1195Q79 1286 146.5 1354Q214 1422 305.5 1461Q397 1500 500 1500L1000 1500Q1104 1500 1195 1460.5Q1286 1421 1354 1353.5Q1422 1286 1461 1195Q1500 1104 1500 1000L1000 1000Q1104 1000 1195 960.5Q1286 921 1354 853.5Q1422 786 1461 695Q1500 604 1500 500Q1500 431 1482 367Q1464 303 1431.5 247.5Q1399 192 1353.5 146.5Q1308 101 1252.5 68.5Q1197 36 1133 18Q1069 0 1000 0Z" transform="translate(1610 0)"/></g></svg>